:SAMPLES-PER-SECOND 30
:FULLY-SPECIFIED
:DEGREES
228
root  48.1248 33.4972 22.1754 4.65678 -1.4964 7.13185
RightUpLeg  7.97561 25.1439 5.90915
RightLeg  9.76963 -2.01501 -0.213275
RightFoot  -9.62303 -0.0115335 0.240547
RightToes  3.85015 0.0108377 0.0367243
Spine  4.43498 -2.75374 0.275263
Spine1  8.5706 -4.75733 -1.01092
HEad  43.2002 0.48002 4.58784
LeftShoulder1  0 -2.42657e-020 -4.95415e-022
LeftArm  -50.5344 30.3991 -89.4101
LeftForeArm  45.5534 -39.5168 -8.34581
LeftHand  -0.0847797 -11.2064 0.494488
RightShoulder  0 2.42657e-020 1.07489e-018
RightArm  -20.5629 -4.33952 75.2285
RightForeArm  102.049 78.4294 60.1561
RightHand  -2.4803 23.091 -11.7315
LeftUpLeg  -25.1581 10.4082 2.29891
LeftLeg  12.3013 -7.65059 -1.15752
LeftFoot  1.40207 0.00233233 -0.190623
LeftToes  -23.4327 1.18758e-006 1.19596e-007
229
root  48.4816 33.3144 23.0644 5.51013 -2.14195 6.22603
RightUpLeg  9.48613 24.7687 6.16898
RightLeg  7.94588 -1.0817 -0.0791415
RightFoot  -9.66158 -0.0257611 0.0727384
RightToes  2.88512 0.0100209 0.027468
Spine  4.23139 -2.52713 0.43544
Spine1  8.17945 -4.28762 -0.684683
HEad  43.1573 -0.876106 5.32037
LeftShoulder1  0 -2.42657e-020 -4.95415e-022
LeftArm  -51.262 31.1858 -90.1032
LeftForeArm  44.9287 -41.1808 -8.86027
LeftHand  -0.0654323 -11.2303 0.29574
RightShoulder  0 2.42657e-020 1.07489e-018
RightArm  -20.773 -1.39753 74.3211
RightForeArm  101.118 77.6022 53.7723
RightHand  -3.59771 21.1788 -18.7075
LeftUpLeg  -27.2033 10.9381 1.18143
LeftLeg  5.25428 -8.90503 -0.244078
LeftFoot  0.0259175 5.93209e-006 -0.026241
LeftToes  -23.839 1.18758e-006 1.19596e-007
230
root  48.7784 33.0759 23.9789 6.14589 -2.57892 5.24063
RightUpLeg  11.2156 24.0584 6.74842
RightLeg  6.34968 -0.393223 -0.0169615
RightFoot  -9.8448 -0.0373211 -0.055794
RightToes  2.39388 0.00855651 0.0227686
Spine  4.10805 -2.0587 0.613414
Spine1  7.94004 -3.33577 -0.313303
HEad  43.19 -3.64327 6.37843
LeftShoulder1  0 -2.42657e-020 -4.95415e-022
LeftArm  -49.2066 30.9828 -90.2428
LeftForeArm  43.5923 -42.7181 -9.36142
LeftHand  -0.0649522 -10.6785 0.325234
RightShoulder  0 2.42657e-020 1.07489e-018
RightArm  -24.422 1.08159 75.1295
RightForeArm  91.601 74.1483 38.5289
RightHand  -4.61279 20.199 -25.1205
LeftUpLeg  -29.9915 10.2204 0.353909
LeftLeg  3.08295 -11.3045 0.117037
LeftFoot  -0.222947 3.15845e-005 0.0162245
LeftToes  -27.7625 1.18758e-006 1.19596e-007
231
root  49.0098 32.7528 24.9705 5.99211 -2.90207 4.28346
RightUpLeg  13.2343 23.1744 7.82022
RightLeg  6.20698 0.145699 0.00774021
RightFoot  -10.7943 -0.0523398 -0.176449
RightToes  1.71885 0.00628924 0.0163254
Spine  4.32755 -1.27222 0.781961
Spine1  8.35197 -1.68651 -0.07327
HEad  42.6654 -7.62586 7.63571
LeftShoulder1  0 -2.42657e-020 -4.95415e-022
LeftArm  -44.6175 29.1915 -89.6928
LeftForeArm  42.9123 -43.6616 -9.6816
LeftHand  -0.0863976 -10.3845 0.581184
RightShoulder  0 2.42657e-020 1.07489e-018
RightArm  -30.8702 3.20807 76.9387
RightForeArm  81.7276 68.4282 26.5114
RightHand  -5.19478 20.0339 -28.4462
LeftUpLeg  -32.3349 6.1012 1.57552
LeftLeg  6.22267 -15.76 -0.691243
LeftFoot  -0.51866 0.000527041 0.116433
LeftToes  -31.8397 1.18758e-006 1.19596e-007
232
root  49.2268 32.3861 26.0988 4.99651 -4.02284 3.47067
RightUpLeg  15.9218 23.014 9.24586
RightLeg  7.15742 0.17281 0.0118758
RightFoot  -12.2319 -0.0626767 -0.207398
RightToes  1.28635 0.0030641 0.0122063
Spine  4.86901 -0.244963 0.734637
Spine1  9.3777 0.42398 -0.169023
HEad  41.8393 -11.7325 9.22226
LeftShoulder1  0 -2.42657e-020 -4.95415e-022
LeftArm  -39.278 26.137 -88.8508
LeftForeArm  42.9602 -43.7199 -9.70159
LeftHand  -0.0709098 -10.673 0.389415
RightShoulder  0 2.42657e-020 1.07489e-018
RightArm  -36.6648 7.3818 78.0637
RightForeArm  70.1774 53.803 13.8975
RightHand  -6.42128 20.4672 -34.1617
LeftUpLeg  -33.1544 -0.788866 4.57813
LeftLeg  11.9367 -17.2263 -2.46154
LeftFoot  -1.33913 0.00454236 0.388669
LeftToes  -35.0028 1.18758e-006 1.19596e-007
233
root  49.4784 31.9198 27.3298 4.74791 -5.14006 2.98103
RightUpLeg  16.6879 21.4927 9.43906
RightLeg  10.2862 0.673068 0.079251
RightFoot  -14.4407 -0.107342 -0.469736
RightToes  -1.41486 -0.0036857 -0.0133425
Spine  5.43922 0.981971 0.571322
Spine1  10.3476 3.6156 -1.20624
HEad  41.4876 -15.3435 11.4675
LeftShoulder1  0 -2.42657e-020 -4.95415e-022
LeftArm  -34.603 22.2836 -88.5227
LeftForeArm  43.4454 -43.573 -9.65036
LeftHand  -0.0794899 -10.6805 0.480722
RightShoulder  0 2.42657e-020 1.07489e-018
RightArm  -39.8691 13.7506 76.043
RightForeArm  67.9082 30.7951 5.96075
RightHand  -5.88159 19.763 -32.5023
LeftUpLeg  -34.3657 -8.66571 7.03463
LeftLeg  18.2813 -16.9361 -4.34116
LeftFoot  -2.08751 0.0113317 0.621952
LeftToes  -34.2474 1.18758e-006 1.19596e-007
234
root  49.6755 31.3739 28.4689 5.27818 -6.47383 3.0145
RightUpLeg  14.5825 19.584 8.55243
RightLeg  17.0122 0.801931 0.189895
RightFoot  -17.5507 -0.169866 -0.722842
RightToes  -6.71182 -0.0203791 -0.0623848
Spine  5.82972 2.32215 0.269392
Spine1  10.5357 7.34818 -2.98593
HEad  42.5748 -18.6142 13.6136
LeftShoulder1  0 -2.42657e-020 -4.95415e-022
LeftArm  -30.6334 18.4973 -88.4512
LeftForeArm  43.3662 -42.6774 -9.34821
LeftHand  -0.0541354 -10.706 0.207931
RightShoulder  0 2.42657e-020 1.07489e-018
RightArm  -42.8875 16.6075 73.6896
RightForeArm  70.6971 19.96 3.59423
RightHand  -4.16118 21.4639 -21.3378
LeftUpLeg  -37.9156 -16.8854 9.99699
LeftLeg  24.6999 -15.2379 -5.76936
LeftFoot  4.14736 0.0412127 -1.13818
LeftToes  -38.3728 1.18758e-006 1.19596e-007
235
root  49.7332 31.036 29.5648 5.2838 -7.485 3.42432
RightUpLeg  12.7614 18.067 8.28422
RightLeg  24.2264 -1.49481 -0.563824
RightFoot  -17.8944 -0.0619259 -0.0157809
RightToes  -15.3285 -0.0569762 -0.138242
Spine  6.51905 3.4704 -0.455026
Spine1  11.1402 10.3572 -4.97776
HEad  42.0112 -22.4615 16.8688
LeftShoulder1  0 -2.42657e-020 -4.95415e-022
LeftArm  -25.7471 12.8557 -87.7042
LeftForeArm  42.1153 -39.1258 -8.23413
LeftHand  0.0188837 -10.9199 -0.567867
RightShoulder  0 2.42657e-020 1.07489e-018
RightArm  -47.7626 19.5602 71.938
RightForeArm  65.4764 11.1847 1.94003
RightHand  0.0130738 20.9286 0.440928
LeftUpLeg  -40.8117 -18.8529 9.87653
LeftLeg  32.6998 -15.3664 -8.36631
LeftFoot  7.99324 0.15981 -2.28703
LeftToes  -36.064 1.18758e-006 1.19596e-007
236
root  49.8053 30.9201 30.6344 4.8989 -8.93613 4.17918
RightUpLeg  9.53857 11.7166 4.99182
RightLeg  32.4808 -0.835402 -0.470671
RightFoot  -13.8223 -0.0478075 -0.0168681
RightToes  -35.2076 -0.181375 -0.286482
Spine  7.10021 4.50683 -1.62963
Spine1  11.5646 12.5782 -6.9398
HEad  40.0982 -26.831 20.9786
LeftShoulder1  0 -2.42657e-020 -4.95415e-022
LeftArm  -20.9601 6.8103 -87.3403
LeftForeArm  42.1467 -34.4982 -6.94308
LeftHand  0.108913 -10.7079 -1.53304
RightShoulder  0 2.42657e-020 1.07489e-018
RightArm  -51.1105 19.6826 71.8421
RightForeArm  61.2928 2.82627 0.459159
RightHand  2.84104 18.0299 18.1436
LeftUpLeg  -40.6444 -15.5994 7.25059
LeftLeg  37.6869 -15.9575 -10.5122
LeftFoot  6.10816 0.101506 -1.90232
LeftToes  -39.672 1.18758e-006 1.19596e-007
